<?xml version="1.0" encoding="UTF-8" standalone="no"?>
<!DOCTYPE svg PUBLIC "-//W3C//DTD SVG 1.1//EN" "http://www.w3.org/Graphics/SVG/1.1/DTD/svg11.dtd">
<svg version="1.1" xmlns="http://www.w3.org/2000/svg" xmlns:xlink="http://www.w3.org/1999/xlink" preserveAspectRatio="xMidYMid meet" viewBox="0 0 715 765" width="715" height="765"><defs><path d="M11.38 331.4C8.03 403.55 31.72 477.31 78.31 539.16C88.08 552.15 122.08 586.15 134.4 595.38C142.3 601.27 143.5 602.75 144.17 607.43C144.57 610.38 147.65 644.38 151 683.07C154.35 721.75 157.69 753.88 158.36 754.68C159.17 755.49 160.5 755.35 162.24 754.42C163.58 753.48 190.49 732.19 221.95 707.03C275.5 664.46 279.51 661.51 283.26 662.32C313.52 668.74 363.58 669.95 395.31 664.86C400.26 664.06 400.53 663.79 400.53 658.97C400.53 656.29 400.93 651.21 401.33 647.73C401.39 647.31 401.71 645.26 402.27 641.57C410.22 641.57 414.64 641.57 415.52 641.57C427.57 641.57 428.78 641.3 428.24 639.16C427.84 637.95 427.17 634.47 426.63 631.53C425.96 627.38 419.14 609.98 416.99 606.9C416.86 606.63 409.9 607.57 401.6 608.9C388.88 611.05 379.78 611.45 345.11 611.31C322.35 611.18 297.72 610.64 290.22 610.24C289.32 610.18 284.81 609.87 276.7 609.31C251.88 628.58 238.09 639.29 235.34 641.43C212.58 659.24 193.57 673.7 193.03 673.7C191.29 673.7 185.14 595.79 184.6 566.2C184.47 563.52 183.93 561.25 183.4 561.25C182.86 561.25 182.32 560.44 182.32 559.51C182.32 558.44 177.64 553.35 171.88 548C166.26 542.64 161.04 537.82 160.5 537.15C159.83 536.62 157.96 534.61 156.22 532.87C154.61 531.26 150.33 527.65 146.85 525.1C138.42 518.68 120.34 497.53 109.63 481.46C71.62 424.04 58.63 355.76 73.36 289.63C77.91 269.02 83.13 254.7 93.3 233.95C113.25 193.25 140.02 162.46 185.14 128.59C189.82 125.11 189.96 124.71 190.89 113.2C193.7 78.8 202.14 67.42 231.86 58.18C236.67 56.71 243.77 54.57 247.79 53.23C257.56 50.28 258.36 51.49 254.08 62.47C251.13 69.69 248.46 85.76 247.92 98.34C247.92 98.74 249.53 98.34 251.67 97.4C253.68 96.33 260.1 94.19 265.99 92.45C271.88 90.71 276.97 88.97 277.1 88.44C277.37 87.77 278.71 87.36 280.05 87.36C281.39 87.36 284.6 84.42 287.28 80.67C290.36 76.52 295.58 71.7 301.2 68.09C312.98 60.59 336.94 47.2 338.68 47.2C341.49 47.2 341.76 50.15 339.62 64.07C338.41 71.97 337.88 78.66 338.15 79.06C338.55 79.33 347.52 80.27 357.96 80.8C383.39 82.28 402.67 85.22 423.96 90.71C514.85 114.14 588.08 180.13 616.19 264.2C643.23 345.06 628.37 429.26 574.69 498.33C558.36 519.35 530.65 544.92 510.7 557.1C506.82 559.51 503.61 562.32 503.61 563.39C503.61 564.46 503.07 565.26 502.27 565.26C499.73 565.26 500.93 569.28 505.62 576.51C512.71 587.62 518.6 599.8 521.68 609.84C521.86 610.45 522.75 613.48 524.36 618.94C530.78 614.77 534.35 612.45 535.07 611.98C551.13 601.54 566.93 588.82 582.46 573.97C634.26 524.17 665.72 464.46 677.9 393.25C681.79 369.82 682.19 323.37 678.57 300.21C673.08 265.14 663.31 234.35 648.05 203.83C631.72 171.3 615.92 149.08 590.62 122.97C563.58 95.13 534 73.71 497.58 55.91C463.85 39.31 432.93 29.67 393.84 23.78C376.83 21.23 333.86 20.16 315.52 21.9C147.92 37.43 19.27 168.49 11.38 331.4Z" id="e8jRqDcsGo"></path><linearGradient id="gradientb14zA3Loj" gradientUnits="userSpaceOnUse" x1="287.36" y1="399.8" x2="317.66" y2="764.68"><stop style="stop-color: #32bd46;stop-opacity: 0.98" offset="0%"></stop><stop style="stop-color: #010000;stop-opacity: 1" offset="100%"></stop></linearGradient><path d="M281.61 92.76C281.26 93.48 279.48 97.03 276.28 103.42C268.77 103.66 264.6 103.79 263.76 103.82C256.97 103.95 250.84 103.69 250.17 103.02C247.77 100.62 251.37 72.78 255.23 63.33C259.5 52.4 258.7 51.2 248.97 54.13C244.98 55.47 237.92 57.6 233.12 59.06C209.01 66.52 198.62 76.65 194.62 96.1C192.23 108.08 190.49 138.72 190.49 171.23C190.49 173.25 190.49 183.38 190.49 201.6C186.26 206.16 183.9 208.69 183.43 209.19C165.32 228.91 156.79 248.62 152.53 280.86C149.06 307.1 147.87 346.27 147.87 436.05C147.87 441.89 147.87 471.06 147.87 523.57L151.46 526.37L155.19 529.3C155.35 512.2 155.44 502.69 155.46 500.79C155.86 457.5 158.39 363.45 159.99 336.54C162.39 293.52 170.38 255.82 181.97 232.9C186.36 224.38 201.68 201.87 206.88 196.4C207.23 196.03 209.01 194.17 212.21 190.81C210.85 185.77 210.09 182.98 209.94 182.42C208.74 177.75 206.75 172.56 205.55 170.83C202.75 166.56 199.82 155.37 199.82 148.98C199.82 146.32 199.29 144.05 198.49 144.05C195.69 144.05 198.22 105.15 201.68 92.9C205.41 80.38 214.87 72.38 236.05 63.99C243.65 61.06 247.24 62.13 243.38 66.39C239.25 71.05 233.25 86.24 231.66 96.1C230.72 102.09 230.59 110.62 231.12 117.68C231.19 118.46 231.5 122.36 232.06 129.4L224.46 129.4L216.87 129.4C217.35 125.8 217.62 123.8 217.67 123.4C218.73 117.01 217.14 115.41 214.74 120.34C212.34 125.4 211.41 140.06 213.41 140.06C222.86 139.66 242.85 136.06 245.64 134.33C248.97 132.06 250.17 128.73 248.04 127.8C247.51 127.53 247.24 124.47 247.51 120.87C247.54 120.44 247.72 118.26 248.04 114.35C265.95 114.82 275.89 115.09 277.88 115.14C304.39 115.81 308.12 116.21 310.92 118.47C311.13 118.64 312.2 119.49 314.11 121.01C311.24 121.97 309.64 122.5 309.32 122.6C294.8 127.8 280.28 139.26 275.08 149.78C270.82 158.57 268.82 175.09 270.02 191.21C270.07 192 270.34 195.95 270.82 203.06L262.69 202.4L254.44 201.87L254.44 207.46L254.44 213.06C269.46 213.54 277.81 213.8 279.48 213.85C293.2 214.25 308.92 215.32 314.38 215.99C319.84 216.79 329.3 217.32 335.3 217.32C336.02 217.32 339.66 217.32 346.22 217.32C346.62 214.68 346.84 213.22 346.88 212.92C347.95 206.4 350.35 167.23 350.35 156.97C350.35 152.04 350.61 148.05 351.01 148.05C351.28 148.05 356.88 150.45 363.14 153.38C380.85 161.5 382.59 160.57 370.73 149.25C366.47 145.25 360.87 140.45 358.34 138.72C355.81 136.86 348.08 131.13 341.29 125.67C340.46 125.03 336.28 121.83 328.77 116.08C333.08 116.48 335.48 116.7 335.96 116.74C339.82 117.01 349.15 117.68 356.61 118.08C403.77 120.47 418.95 126.73 511.54 181.62C514.42 183.33 528.85 191.9 554.83 207.33C555.07 210.92 555.2 212.92 555.23 213.32C555.5 216.65 555.36 224.91 554.83 231.57C554.77 232.4 554.46 236.53 553.9 243.96C551.66 243.96 550.42 243.96 550.17 243.96C548.04 243.96 534.85 241.03 520.59 237.43C486.89 228.77 471.31 226.11 457.72 226.91C443.06 227.71 436.14 231.04 424.68 242.76C415.89 251.69 415.36 252.49 416.16 257.02C416.95 262.21 421.22 266.47 425.61 266.61C427.08 266.61 431.61 265.27 435.6 263.81C446.79 259.41 457.05 259.81 467.58 265.01C479.3 270.87 510.07 294.32 511 298.05C511.4 299.78 511.14 306.44 510.2 313.1C509.4 319.76 509 325.62 509.4 326.29C510.47 328.02 500.35 348.13 492.22 360.39C483.96 372.91 476.5 380.37 468.24 383.97C456.39 389.3 414.42 386.76 385.38 379.17C356.48 371.58 341.29 358.66 320.64 324.29C309.45 305.51 301.06 290.05 301.06 288.19C301.06 287.12 305.19 286.59 314.38 286.59C315.27 286.59 319.71 286.59 327.7 286.59C327.7 280.99 327.7 277.89 327.7 277.26C327.7 270.6 327.17 267.94 325.97 267.94C320.38 267.94 300.79 271 295.6 272.73C289.07 274.87 282.28 281.13 273.22 293.52C265.63 304.17 265.89 306.17 274.55 301.11C278.28 298.98 283.48 295.65 286.14 293.92C290 291.25 291.34 290.98 292.53 292.32C293.33 293.12 299.86 303.51 307.05 315.23C329.7 352.26 334.36 358.26 351.28 371.45C361.94 379.7 380.72 390.49 384.72 390.49C385.65 390.49 389.78 391.69 393.91 393.16C398.17 394.62 403.9 395.82 406.96 395.96C407.32 395.97 409.1 396.01 412.29 396.09C408.3 397.21 406.08 397.83 405.63 397.95C401.24 399.15 391.51 399.82 376.46 399.82C374.96 399.82 367.45 399.82 353.95 399.82C348.27 397.1 345.12 395.59 344.49 395.29C331.57 389.16 321.57 381.44 302.66 363.32C287.74 348.93 282.41 345.34 282.41 349.6C282.41 352 285.47 356.13 297.2 369.98C312.12 387.43 323.57 397.55 333.96 402.75C341.82 406.61 344.49 407.15 355.01 407.55C365.93 407.95 386.18 406.48 398.04 404.35C398.34 404.29 399.85 403.98 402.57 403.42C402.17 408.93 401.95 412 401.9 412.61C401.64 417.67 400.3 428.86 398.97 437.65C394.71 464.56 398.84 483.21 416.55 518.25C421.88 528.77 426.15 537.56 426.01 537.69C425.75 537.83 409.89 538.36 390.71 538.89C388.38 538.96 376.7 539.27 355.68 539.83C355.68 535.99 355.68 533.86 355.68 533.43C355.68 529.97 354.48 524.37 353.01 521.18C350.35 515.58 346.35 496.13 346.35 489.6C346.35 485.87 342.22 483.08 339.96 485.34C339.03 486.27 338.76 492.14 339.29 502.93C340.09 519.98 337.96 534.9 333.43 544.75C331.97 547.69 331.7 549.55 332.63 550.48C333.56 551.42 344.75 551.15 366.73 549.82C409.63 547.02 445.06 547.02 462.78 549.82C470.37 551.02 477.17 552.35 477.83 552.88C479.7 554.08 500.35 589.91 504.87 600.04C507.01 604.83 510.87 615.89 513.27 624.68C518.06 641.47 517.93 644.53 512.87 648.93C511.4 650.26 510.2 651.86 510.2 652.79C510.2 653.59 509.67 654.25 509.14 654.25C508.47 654.25 507.01 650.79 505.81 646.53C502.61 634.94 495.95 620.95 493.68 620.95C489.82 620.95 490.09 623.88 495.02 636C500.21 648.79 501.81 657.59 500.35 665.44C499.55 669.31 498.61 670.37 493.82 672.24C490.35 673.57 485.29 674.24 480.9 673.97C480.41 673.94 477.97 673.81 473.57 673.57C472.61 665.18 472.08 660.52 471.97 659.58C469.71 639.6 466.11 628.94 461.45 628.94C458.25 628.94 457.98 631.74 460.78 638.14C463.71 645.06 467.31 669.57 465.71 671.31C464.25 672.64 418.55 673.3 412.29 671.97C411.94 671.89 410.16 671.49 406.96 670.77L406.56 659.18L406.16 647.59C414.08 647.59 418.47 647.59 419.35 647.59C429.48 647.59 432.94 647.06 434.27 645.6C435.6 644 435.47 640 433.87 625.61C431.74 606.83 429.88 601.77 417.75 582.59C413.09 575.13 409.49 575.26 410.03 582.99C410.29 585.78 411.36 589.38 412.43 590.85C415.62 595.38 414.82 598.04 410.03 598.97C377.26 604.43 366.07 604.7 327.04 601.64C313.05 600.44 292.8 599.11 281.88 598.57C280.57 598.51 274.04 598.2 262.3 597.64C257.1 584.45 254.21 577.13 253.64 575.66C234.85 527.7 232.19 515.45 230.86 471.35C229.92 439.38 229.39 436.85 224.06 441.51C222.86 442.58 219.4 444.71 216.34 446.18C207.15 450.84 207.15 450.84 210.48 470.69C216.87 509.45 221.53 530.5 226.86 544.35C229.26 550.48 249.51 590.31 253.5 596.57C255.5 599.77 257.1 602.84 257.1 603.5C257.1 606.83 289.6 609.1 342.36 609.36C380.59 609.63 389.11 609.23 402.03 607.1C410.29 605.77 417.22 604.83 417.35 605.1C419.49 608.16 426.28 625.48 426.95 629.61C427.48 632.54 428.14 636 428.54 637.2C429.08 639.34 427.88 639.6 415.89 639.6C415 639.6 410.56 639.6 402.57 639.6C402.09 643.84 401.82 646.19 401.77 646.66C399.24 669.57 399.24 672.11 402.03 675.57C402.21 675.79 403.1 676.9 404.7 678.9C423.96 678.98 434.66 679.02 436.8 679.03C454.39 679.03 469.31 679.57 469.84 679.96C471.97 682.23 489.82 680.76 497.55 677.83C498.08 677.63 500.75 676.61 505.54 674.77C506.18 670.37 506.54 667.93 506.61 667.44C507.67 660.78 508.34 659.72 512.87 656.92C515.93 655.05 519.53 650.92 522.06 646.53C522.34 646.03 523.76 643.54 526.32 639.07C525.44 631.88 524.95 627.88 524.86 627.08C522.33 604.97 518.06 594.71 500.08 565.94C487.82 546.49 486.89 545.42 480.63 542.22C475.7 539.69 455.85 537.16 444.4 537.56C444.06 537.57 442.37 537.61 439.33 537.69C435.42 527.7 433.24 522.15 432.81 521.04C421.35 492.14 414.42 470.29 412.96 458.43C410.56 438.85 409.63 416.74 410.83 410.61C410.91 410.22 411.31 408.27 412.03 404.75C427.29 405.31 435.77 405.62 437.47 405.68C465.71 406.75 473.57 405.81 496.88 398.49C530.45 388.1 543.24 370.51 551.37 323.22C555.36 300.44 565.89 207.33 564.69 206C564.42 205.73 551.23 198 535.51 188.68C458.65 143.12 424.68 125.4 400.57 118.21C374.59 110.35 358.87 106.75 350.61 106.75C338.09 106.75 338.36 107.15 338.36 91.83C338.36 84.51 339.29 72.25 340.36 64.66C342.49 50.8 342.22 48.14 339.29 48.14C338.36 48.14 329.03 53.07 318.38 59.2C295.73 71.98 289.2 77.98 281.61 92.76ZM333.56 70.92C332.1 77.85 331.7 84.24 332.23 92.63C333.03 104.35 333.03 104.35 329.97 103.56C328.37 103.16 320.11 102.76 311.58 102.76C296.13 102.76 296 102.76 295.46 99.43C295.07 97.56 295.33 93.03 296.13 89.17C298 80.11 303.72 74.38 319.98 65.59C333.16 58.4 333.83 58.13 334.9 59.99C335.3 60.53 334.63 65.59 333.56 70.92ZM341.16 158.04C343.02 162.3 343.69 168.83 344.49 189.61C344.55 191.37 344.86 200.16 345.42 215.99C342.46 215.99 340.82 215.99 340.49 215.99C337.83 215.99 333.43 215.05 330.77 213.99C328.24 212.92 324.9 211.99 323.57 211.99C321.17 211.99 321.04 210.66 321.04 188.94C321.04 187.41 321.04 179.73 321.04 165.9C317.84 166.22 316.07 166.4 315.71 166.43C311.32 166.83 309.85 166.3 306.39 162.97C301.73 158.17 301.33 153.78 305.19 148.85C305.37 148.62 306.26 147.46 307.85 145.38C303.94 145.38 301.76 145.38 301.33 145.38C295.46 145.38 294.67 145.12 295.33 142.99C296.53 138.06 309.72 135.93 320.24 138.86C326.77 140.59 337.96 150.98 341.16 158.04ZM306.39 176.02C306.39 181.35 300.13 188.01 295.07 188.01C290 188.01 283.74 181.35 283.74 176.02C283.74 170.69 290 164.03 295.07 164.03C297.2 164.03 300.13 165.63 302.53 167.9C305.19 170.56 306.39 173.09 306.39 176.02ZM519.26 377.84C512.07 383.97 497.55 389.96 476.37 395.69C459.18 400.49 454.65 401.15 442.66 401.15C431.61 401.15 428.94 400.75 428.94 399.29C428.94 396.22 430.68 395.69 446.93 394.49C447.95 394.41 453.06 394.01 462.25 393.29C469.2 388.82 473.06 386.33 473.84 385.83C487.16 377.04 500.48 364.78 506.07 355.99C513.4 344.54 515.93 334.41 516.2 315.5C516.33 306.17 516.86 298.05 517.4 297.65C517.8 297.25 518.2 295.11 518.2 293.12C518.2 289.39 523.39 284.19 533.38 277.8C536.31 275.93 547.9 273.13 549.77 273.93C549.9 273.93 548.57 284.46 546.7 297.25C539.64 347.07 533.12 366.25 519.26 377.84Z" id="g36wi070s"></path><mask id="maskd12jkdxcC7" x="115.87" y="16.14" width="480.92" height="696.93" maskUnits="userSpaceOnUse"><rect x="115.87" y="16.14" width="480.92" height="696.93" fill="white"></rect><use xlink:href="#g36wi070s" opacity="1" fill="black"></use></mask><path d="M294.25 89.17C293.45 93.03 293.18 97.56 293.58 99.43C294.11 102.76 294.25 102.76 309.7 102.76C318.22 102.76 326.48 103.16 328.08 103.56C331.15 104.35 331.15 104.35 330.35 92.63C329.81 84.24 330.21 77.85 331.68 70.92C333.68 61.73 333.54 58.8 331.41 58.8C330.88 58.8 324.89 61.86 318.09 65.59C301.84 74.38 296.11 80.11 294.25 89.17Z" id="a2tm6muLx"></path><linearGradient id="gradientb5MeL18g3" gradientUnits="userSpaceOnUse" x1="335.86" y1="56.91" x2="313.25" y2="103.85"><stop style="stop-color: #ceac73;stop-opacity: 0.98" offset="0%"></stop><stop style="stop-color: #010000;stop-opacity: 1" offset="100%"></stop></linearGradient><path d="M201.68 92.9C198.22 105.15 195.69 144.05 198.49 144.05C199.29 144.05 199.82 146.32 199.82 148.98C199.82 155.37 202.75 166.56 205.55 170.83C206.75 172.56 208.74 177.75 209.94 182.42C210.09 182.98 210.85 185.77 212.21 190.81C209.01 194.17 207.23 196.03 206.88 196.4C201.68 201.87 186.36 224.38 181.97 232.9C170.25 256.08 162.25 293.78 159.85 337.88C157.86 375.31 155.86 452.57 155.86 492.67C155.86 526.9 155.99 527.97 158.92 532.1C160.52 534.5 162.39 536.63 163.05 536.89C165.85 538.09 183.83 556.21 183.83 557.94C183.83 558.87 184.37 559.67 184.9 559.67C185.43 559.67 185.96 561.94 186.1 564.6C186.63 599.5 192.76 671.97 195.16 671.17C195.82 670.91 214.47 656.65 236.59 639.47C280.81 605.23 278.68 607.76 263.49 605.63C259.9 605.23 257.1 604.17 257.1 603.5C257.1 602.84 255.63 599.9 253.9 597.11C246.44 585.25 230.19 552.75 225.93 540.89C220.87 526.77 216.6 507.85 211.14 474.68C207.15 450.44 207.01 450.84 216.34 446.18C219.4 444.71 222.86 442.58 224.06 441.51C229.39 436.85 229.92 439.38 230.86 471.35C232.19 515.45 234.85 527.7 253.64 575.66C254.21 577.13 257.1 584.45 262.3 597.64C274.04 598.2 280.57 598.51 281.88 598.57C292.8 599.11 313.05 600.44 327.04 601.64C365.27 604.7 379.12 604.17 410.03 598.97C414.82 598.04 415.62 595.38 412.43 590.85C411.36 589.38 410.29 585.78 410.03 582.99C409.49 575.26 413.09 575.13 417.75 582.59C429.88 601.77 431.74 606.83 433.87 625.61C435.47 640 435.6 644 434.27 645.6C432.94 647.06 429.48 647.59 419.35 647.59C418.47 647.59 414.08 647.59 406.16 647.59L406.56 659.18L406.96 670.77C410.16 671.49 411.94 671.89 412.29 671.97C418.55 673.3 464.25 672.64 465.71 671.31C467.31 669.57 463.71 645.06 460.78 638.14C457.98 631.74 458.25 628.94 461.45 628.94C466.11 628.94 469.71 639.6 471.97 659.58C472.08 660.52 472.61 665.18 473.57 673.57C477.97 673.81 480.41 673.94 480.9 673.97C485.29 674.24 490.35 673.57 493.82 672.24C498.61 670.37 499.55 669.31 500.35 665.44C501.81 657.59 500.21 648.79 495.02 636C490.09 623.88 489.82 620.95 493.68 620.95C495.95 620.95 502.61 634.94 505.81 646.53C507.01 650.79 508.47 654.25 509.14 654.25C509.67 654.25 510.2 653.59 510.2 652.79C510.2 651.86 511.4 650.26 512.87 648.93C517.93 644.53 518.06 641.47 513.27 624.68C510.87 615.89 507.01 604.83 504.87 600.04C500.35 589.91 479.7 554.08 477.83 552.88C477.17 552.35 470.37 551.02 462.78 549.82C445.06 547.02 409.63 547.02 366.73 549.82C344.75 551.15 333.56 551.42 332.63 550.48C331.7 549.55 331.97 547.69 333.43 544.75C337.96 534.9 340.09 519.98 339.29 502.93C338.76 492.14 339.03 486.27 339.96 485.34C342.22 483.08 346.35 485.87 346.35 489.6C346.35 496.13 350.35 515.58 353.01 521.18C354.48 524.37 355.68 529.97 355.68 533.43C355.68 533.86 355.68 535.99 355.68 539.83C376.7 539.27 388.38 538.96 390.71 538.89C409.89 538.36 425.75 537.83 426.01 537.69C426.15 537.56 421.88 528.77 416.55 518.25C398.84 483.21 394.71 464.56 398.97 437.65C400.3 428.86 401.64 417.67 401.9 412.61C401.95 412 402.17 408.93 402.57 403.42C399.85 403.98 398.34 404.29 398.04 404.35C386.18 406.48 365.93 407.95 355.01 407.55C344.49 407.15 341.82 406.61 333.96 402.75C323.57 397.55 312.12 387.43 297.2 369.98C285.47 356.13 282.41 352 282.41 349.6C282.41 345.34 287.74 348.93 302.66 363.32C321.57 381.44 331.57 389.16 344.49 395.29C345.12 395.59 348.27 397.1 353.95 399.82C367.45 399.82 374.96 399.82 376.46 399.82C391.51 399.82 401.24 399.15 405.63 397.95C406.08 397.83 408.3 397.21 412.29 396.09C409.1 396.01 407.32 395.97 406.96 395.96C403.9 395.82 398.17 394.62 393.91 393.16C389.78 391.69 385.65 390.49 384.72 390.49C380.72 390.49 361.94 379.7 351.28 371.45C334.36 358.26 329.7 352.26 307.05 315.23C299.86 303.51 293.33 293.12 292.53 292.32C291.34 290.98 290 291.25 286.14 293.92C283.48 295.65 278.28 298.98 274.55 301.11C265.89 306.17 265.63 304.17 273.22 293.52C282.28 281.13 289.07 274.87 295.6 272.73C300.79 271 320.38 267.94 325.97 267.94C327.17 267.94 327.7 270.6 327.7 277.26C327.7 277.89 327.7 280.99 327.7 286.59C319.71 286.59 315.27 286.59 314.38 286.59C305.19 286.59 301.06 287.12 301.06 288.19C301.06 290.05 309.45 305.51 320.64 324.29C341.29 358.66 356.48 371.58 385.38 379.17C414.42 386.76 456.39 389.3 468.24 383.97C476.5 380.37 483.96 372.91 492.22 360.39C500.35 348.13 510.47 328.02 509.4 326.29C509 325.62 509.4 319.76 510.2 313.1C511.14 306.44 511.4 299.78 511 298.05C510.07 294.32 479.3 270.87 467.58 265.01C457.05 259.81 446.79 259.41 435.6 263.81C431.61 265.27 427.08 266.61 425.61 266.61C421.22 266.47 416.95 262.21 416.16 257.02C415.36 252.49 415.89 251.69 424.68 242.76C436.14 231.04 443.06 227.71 457.72 226.91C471.31 226.11 486.89 228.77 520.59 237.43C534.85 241.03 548.04 243.96 550.17 243.96C550.42 243.96 551.66 243.96 553.9 243.96C554.46 236.53 554.77 232.4 554.83 231.57C555.36 224.91 555.5 216.65 555.23 213.32C555.2 212.92 555.07 210.92 554.83 207.33C528.85 191.9 514.42 183.33 511.54 181.62C418.95 126.73 403.77 120.47 356.61 118.08C349.15 117.68 339.82 117.01 335.96 116.74C335.48 116.7 333.08 116.48 328.77 116.08C336.28 121.83 340.46 125.03 341.29 125.67C348.08 131.13 355.81 136.86 358.34 138.72C360.87 140.45 366.47 145.25 370.73 149.25C382.59 160.57 380.85 161.5 363.14 153.38C356.88 150.45 351.28 148.05 351.01 148.05C350.61 148.05 350.35 152.04 350.35 156.97C350.35 167.23 347.95 206.4 346.88 212.92C346.84 213.22 346.62 214.68 346.22 217.32C339.66 217.32 336.02 217.32 335.3 217.32C329.3 217.32 319.84 216.79 314.38 215.99C308.92 215.32 293.2 214.25 279.48 213.85C277.81 213.8 269.46 213.54 254.44 213.06L254.44 207.46L254.44 201.87L262.69 202.4L270.82 203.06C270.34 195.95 270.07 192 270.02 191.21C268.82 175.09 270.82 158.57 275.08 149.78C280.28 139.26 294.8 127.8 309.32 122.6C309.64 122.5 311.24 121.97 314.11 121.01C312.2 119.49 311.13 118.64 310.92 118.47C308.12 116.21 304.39 115.81 277.88 115.14C275.89 115.09 265.95 114.82 248.04 114.35C247.72 118.26 247.54 120.44 247.51 120.87C247.24 124.47 247.51 127.53 248.04 127.8C250.17 128.73 248.97 132.06 245.64 134.33C242.85 136.06 222.86 139.66 213.41 140.06C211.41 140.06 212.34 125.4 214.74 120.34C217.14 115.41 218.73 117.01 217.67 123.4C217.62 123.8 217.35 125.8 216.87 129.4L224.46 129.4L232.06 129.4C231.5 122.36 231.19 118.46 231.12 117.68C230.59 110.62 230.72 102.09 231.66 96.1C233.12 86.37 239.25 71.18 243.38 66.52C245.24 64.52 244.84 61.33 242.71 61.46C242.18 61.59 238.45 62.93 234.45 64.66C213.54 73.45 205.28 80.51 201.68 92.9Z" id="c61oVsOrXa"></path><radialGradient id="gradientc5aEfqZaz" gradientUnits="userSpaceOnUse" cx="181.85" cy="447.19" dx="1050.6" dy="-324.89" r="1162.26"><stop style="stop-color: #ceac73;stop-opacity: 1" offset="0%"></stop><stop style="stop-color: #010000;stop-opacity: 1" offset="100%"></stop></radialGradient><path d="M518.2 293.12C518.2 295.11 517.8 297.25 517.4 297.65C516.86 298.05 516.33 306.17 516.2 315.5C515.93 334.41 513.4 344.54 506.07 355.99C500.48 364.78 487.16 377.04 473.84 385.83C473.06 386.33 469.2 388.82 462.25 393.29C453.06 394.01 447.95 394.41 446.93 394.49C430.68 395.69 428.94 396.22 428.94 399.29C428.94 400.75 431.61 401.15 442.66 401.15C454.65 401.15 459.18 400.49 476.37 395.69C497.55 389.96 512.07 383.97 519.26 377.84C529.12 369.45 535.78 355.73 540.71 333.08C543.11 321.62 550.43 274.2 549.77 273.93C549.63 273.8 546.7 274.2 543.37 274.6C533.38 275.8 518.2 286.99 518.2 293.12Z" id="b15QOKmiOS"></path><linearGradient id="gradientc1kdfYVSZC" gradientUnits="userSpaceOnUse" x1="489.38" y1="273.91" x2="600.56" y2="329.54"><stop style="stop-color: #ceac73;stop-opacity: 1" offset="0%"></stop><stop style="stop-color: #010000;stop-opacity: 1" offset="100%"></stop></linearGradient><path d="M307.85 115.41C308.25 115.78 310.25 117.65 313.85 121.01C311.05 122.05 309.5 122.62 309.19 122.74C294.8 127.67 280.28 139.39 275.08 149.78C270.82 158.57 268.82 175.09 270.02 191.21C270.07 192 270.34 195.95 270.82 203.06L262.69 202.4L254.44 201.87L254.44 207.46L254.44 213.06C269.46 213.54 277.81 213.8 279.48 213.85C293.2 214.25 308.92 215.32 314.38 215.99C319.84 216.79 329.3 217.32 335.3 217.32C336.02 217.32 339.66 217.32 346.22 217.32C346.62 214.68 346.84 213.22 346.88 212.92C347.95 206.4 350.35 167.23 350.35 156.97C350.35 152.04 350.61 148.05 351.01 148.05C351.28 148.05 356.88 150.45 363.14 153.38C380.85 161.5 382.59 160.57 370.73 149.25C366.47 145.25 360.87 140.45 358.34 138.72C355.81 136.86 345.42 129 335.3 121.14C317.58 107.42 316.51 106.75 310.38 106.75C306.79 106.75 303.46 107.42 302.92 108.35C302.39 109.15 304.39 112.08 307.85 115.41ZM341.16 158.04C343.02 162.3 343.69 168.83 344.49 189.61C344.55 191.37 344.86 200.16 345.42 215.99C342.46 215.99 340.82 215.99 340.49 215.99C337.83 215.99 333.43 215.05 330.77 213.99C328.24 212.92 324.9 211.99 323.57 211.99C321.17 211.99 321.04 210.66 321.04 188.94C321.04 187.41 321.04 179.73 321.04 165.9C317.84 166.22 316.07 166.4 315.71 166.43C311.32 166.83 309.85 166.3 306.39 162.97C301.73 158.17 301.33 153.78 305.19 148.85C305.37 148.62 306.26 147.46 307.85 145.38C303.94 145.38 301.76 145.38 301.33 145.38C295.46 145.38 294.67 145.12 295.33 142.99C296.53 138.06 309.72 135.93 320.24 138.86C326.77 140.59 337.96 150.98 341.16 158.04ZM306.39 176.02C306.39 181.35 300.13 188.01 295.07 188.01C290 188.01 283.74 181.35 283.74 176.02C283.74 170.69 290 164.03 295.07 164.03C297.2 164.03 300.13 165.63 302.53 167.9C305.19 170.56 306.39 173.09 306.39 176.02Z" id="bKLoDznAQ"></path><path d="M416.38 247.29C412.25 252.49 411.72 253.95 412.39 257.82C413.32 262.48 417.85 266.61 422.11 266.61C423.44 266.61 427.84 265.27 431.84 263.81C442.49 259.55 453.15 259.81 463.01 264.61C471 268.34 500.44 289.65 505.9 295.51C509.9 299.78 513.63 299.11 514.16 293.92C514.83 288.85 516.96 286.46 526.82 279.8C532.54 276.07 536.14 274.6 539.87 274.6C546.13 274.6 546.93 273.27 549.2 259.15C551.06 246.76 550.39 243.96 545.87 243.96C544.13 243.96 531.08 241.03 516.82 237.43C473.13 226.24 454.48 224.25 440.23 229.17C432.5 231.84 423.58 238.63 416.38 247.29Z" id="h2554YnbEE"></path><linearGradient id="gradientefKjmZGym" gradientUnits="userSpaceOnUse" x1="509.42" y1="222.87" x2="507.54" y2="285.12"><stop style="stop-color: #bd3232;stop-opacity: 0.98" offset="0%"></stop><stop style="stop-color: #010000;stop-opacity: 1" offset="100%"></stop></linearGradient><path d="M295.33 142.99C294.67 145.12 295.46 145.38 301.33 145.38C301.76 145.38 303.94 145.38 307.85 145.38C306.26 147.46 305.37 148.62 305.19 148.85C301.33 153.78 301.73 158.17 306.39 162.97C309.85 166.3 311.32 166.83 315.71 166.43C316.07 166.4 317.84 166.22 321.04 165.9C321.04 179.73 321.04 187.41 321.04 188.94C321.04 210.66 321.17 211.99 323.57 211.99C324.9 211.99 328.24 212.92 330.77 213.99C333.43 215.05 337.83 215.99 340.49 215.99C340.82 215.99 342.46 215.99 345.42 215.99C344.86 200.16 344.55 191.37 344.49 189.61C343.69 168.83 343.02 162.3 341.16 158.04C337.96 150.98 326.77 140.59 320.24 138.86C313.85 137.12 304.26 137.26 299.46 139.12C297.6 139.92 295.6 141.65 295.33 142.99Z" id="a1ShR9tTV"></path><path d="M283.74 176.02C283.74 181.35 290 188.01 295.07 188.01C300.13 188.01 306.39 181.35 306.39 176.02C306.39 170.69 300.13 164.03 295.07 164.03C292.93 164.03 290 165.63 287.61 167.9C284.94 170.56 283.74 173.09 283.74 176.02Z" id="bFAtOFEn2"></path><path d="M351.7 109.19C359.83 109.19 375.31 112.74 400.89 120.47C424.63 127.56 458.09 145 533.78 189.86C549.26 199.04 562.24 206.65 562.5 206.91C563.69 208.23 553.32 299.91 549.39 322.34C541.38 368.91 528.79 386.22 495.73 396.45C472.78 403.67 465.04 404.58 437.23 403.53C435.56 403.47 427.21 403.17 412.17 402.62C411.54 405.69 411.19 407.39 411.12 407.73C409.16 417.7 411.91 454.56 415.71 469.51C417.94 477.78 431.19 514.9 435.92 525.52C436.97 527.75 438.15 530.64 438.54 532.08C439.2 534.18 440.25 534.44 444.97 533.78C448.12 533.39 456.12 533.52 462.94 534.31C479.07 535.88 484.19 538.77 491.67 550.31C495.34 555.95 498.23 559.1 499.8 559.1C501.24 559.1 502.29 558.31 502.29 557.26C502.29 556.21 505.44 553.46 509.25 551.1C528.79 539.16 555.95 514.11 571.95 493.52C636.75 410.22 643.31 303.72 589.27 213.87C575.36 190.78 550.17 162.71 528.14 145.53C481.3 109.06 425.55 88.21 365.87 84.93C358.26 84.54 349.34 83.88 345.93 83.49C345.51 83.44 343.41 83.22 339.63 82.83L339.63 95.29C339.46 104.56 343.48 109.19 351.7 109.19Z" id="b2uvroQz5x"></path><path d="M278.41 89.3C278.01 89.7 272.95 91.57 267.09 93.16C253.64 97.03 249.77 98.89 249.77 101.42C249.77 103.02 252.17 103.42 262.83 103.42C263.71 103.42 268.1 103.42 276.02 103.42C278.81 98.39 280.37 95.59 280.68 95.03C283.21 90.5 285.07 86.9 284.81 86.9C284.67 87.04 283.21 87.44 281.74 87.7C280.28 88.1 278.81 88.77 278.41 89.3Z" id="gUHb1MhkQ"></path><path d="M98.97 233.97C88.85 254.62 83.66 268.87 79.13 289.39C64.47 355.19 77.39 423.13 115.36 480.41C124.55 494.27 146.13 520.24 149.6 521.58C151.33 522.24 151.59 512.65 151.59 435.39C151.59 346.27 152.79 307.1 156.26 280.86C160.52 248.62 169.04 228.91 187.03 209.33C187.49 208.83 189.8 206.34 193.96 201.87C194.27 178.93 194.45 166.18 194.49 163.63C194.62 142.59 194.89 125.4 194.89 125.54C194.89 125.54 192.76 127.13 190.23 129.13C144.13 164.17 118.82 193.34 98.97 233.97Z" id="e1KDsvoB04"></path></defs><g><g><g><use xlink:href="#e8jRqDcsGo" opacity="1" fill="url(#gradientb14zA3Loj)"></use><g><use xlink:href="#e8jRqDcsGo" opacity="1" fill-opacity="0" stroke="#000000" stroke-width="1" stroke-opacity="0"></use></g></g><g><g><filter id="shadow9667129" x="140.87" y="41.14" width="430.92" height="648.93" filterUnits="userSpaceOnUse" primitiveUnits="userSpaceOnUse"><feFlood></feFlood><feComposite in2="SourceAlpha" operator="in"></feComposite><feGaussianBlur stdDeviation="0"></feGaussianBlur><feOffset dx="0" dy="2" result="afterOffset"></feOffset><feFlood flood-color="#bd8932" flood-opacity="0.5"></feFlood><feComposite in2="afterOffset" operator="in"></feComposite><feMorphology operator="dilate" radius="0"></feMorphology><feComposite in2="SourceAlpha" operator="out"></feComposite></filter><path d="M281.61 92.76C281.26 93.48 279.48 97.03 276.28 103.42C268.77 103.66 264.6 103.79 263.76 103.82C256.97 103.95 250.84 103.69 250.17 103.02C247.77 100.62 251.37 72.78 255.23 63.33C259.5 52.4 258.7 51.2 248.97 54.13C244.98 55.47 237.92 57.6 233.12 59.06C209.01 66.52 198.62 76.65 194.62 96.1C192.23 108.08 190.49 138.72 190.49 171.23C190.49 173.25 190.49 183.38 190.49 201.6C186.26 206.16 183.9 208.69 183.43 209.19C165.32 228.91 156.79 248.62 152.53 280.86C149.06 307.1 147.87 346.27 147.87 436.05C147.87 441.89 147.87 471.06 147.87 523.57L151.46 526.37L155.19 529.3C155.35 512.2 155.44 502.69 155.46 500.79C155.86 457.5 158.39 363.45 159.99 336.54C162.39 293.52 170.38 255.82 181.97 232.9C186.36 224.38 201.68 201.87 206.88 196.4C207.23 196.03 209.01 194.17 212.21 190.81C210.85 185.77 210.09 182.98 209.94 182.42C208.74 177.75 206.75 172.56 205.55 170.83C202.75 166.56 199.82 155.37 199.82 148.98C199.82 146.32 199.29 144.05 198.49 144.05C195.69 144.05 198.22 105.15 201.68 92.9C205.41 80.38 214.87 72.38 236.05 63.99C243.65 61.06 247.24 62.13 243.38 66.39C239.25 71.05 233.25 86.24 231.66 96.1C230.72 102.09 230.59 110.62 231.12 117.68C231.19 118.46 231.5 122.36 232.06 129.4L224.46 129.4L216.87 129.4C217.35 125.8 217.62 123.8 217.67 123.4C218.73 117.01 217.14 115.41 214.74 120.34C212.34 125.4 211.41 140.06 213.41 140.06C222.86 139.66 242.85 136.06 245.64 134.33C248.97 132.06 250.17 128.73 248.04 127.8C247.51 127.53 247.24 124.47 247.51 120.87C247.54 120.44 247.72 118.26 248.04 114.35C265.95 114.82 275.89 115.09 277.88 115.14C304.39 115.81 308.12 116.21 310.92 118.47C311.13 118.64 312.2 119.49 314.11 121.01C311.24 121.97 309.64 122.5 309.32 122.6C294.8 127.8 280.28 139.26 275.08 149.78C270.82 158.57 268.82 175.09 270.02 191.21C270.07 192 270.34 195.95 270.82 203.06L262.69 202.4L254.44 201.87L254.44 207.46L254.44 213.06C269.46 213.54 277.81 213.8 279.48 213.85C293.2 214.25 308.92 215.32 314.38 215.99C319.84 216.79 329.3 217.32 335.3 217.32C336.02 217.32 339.66 217.32 346.22 217.32C346.62 214.68 346.84 213.22 346.88 212.92C347.95 206.4 350.35 167.23 350.35 156.97C350.35 152.04 350.61 148.05 351.01 148.05C351.28 148.05 356.88 150.45 363.14 153.38C380.85 161.5 382.59 160.57 370.73 149.25C366.47 145.25 360.87 140.45 358.34 138.72C355.81 136.86 348.08 131.13 341.29 125.67C340.46 125.03 336.28 121.83 328.77 116.08C333.08 116.48 335.48 116.7 335.96 116.74C339.82 117.01 349.15 117.68 356.61 118.08C403.77 120.47 418.95 126.73 511.54 181.62C514.42 183.33 528.85 191.9 554.83 207.33C555.07 210.92 555.2 212.92 555.23 213.32C555.5 216.65 555.36 224.91 554.83 231.57C554.77 232.4 554.46 236.53 553.9 243.96C551.66 243.96 550.42 243.96 550.17 243.96C548.04 243.96 534.85 241.03 520.59 237.43C486.89 228.77 471.31 226.11 457.72 226.91C443.06 227.71 436.14 231.04 424.68 242.76C415.89 251.69 415.36 252.49 416.16 257.02C416.95 262.21 421.22 266.47 425.61 266.61C427.08 266.61 431.61 265.27 435.6 263.81C446.79 259.41 457.05 259.81 467.58 265.01C479.3 270.87 510.07 294.32 511 298.05C511.4 299.78 511.14 306.44 510.2 313.1C509.4 319.76 509 325.62 509.4 326.29C510.47 328.02 500.35 348.13 492.22 360.39C483.96 372.91 476.5 380.37 468.24 383.97C456.39 389.3 414.42 386.76 385.38 379.17C356.48 371.58 341.29 358.66 320.64 324.29C309.45 305.51 301.06 290.05 301.06 288.19C301.06 287.12 305.19 286.59 314.38 286.59C315.27 286.59 319.71 286.59 327.7 286.59C327.7 280.99 327.7 277.89 327.7 277.26C327.7 270.6 327.17 267.94 325.97 267.94C320.38 267.94 300.79 271 295.6 272.73C289.07 274.87 282.28 281.13 273.22 293.52C265.63 304.17 265.89 306.17 274.55 301.11C278.28 298.98 283.48 295.65 286.14 293.92C290 291.25 291.34 290.98 292.53 292.32C293.33 293.12 299.86 303.51 307.05 315.23C329.7 352.26 334.36 358.26 351.28 371.45C361.94 379.7 380.72 390.49 384.72 390.49C385.65 390.49 389.78 391.69 393.91 393.16C398.17 394.62 403.9 395.82 406.96 395.96C407.32 395.97 409.1 396.01 412.29 396.09C408.3 397.21 406.08 397.83 405.63 397.95C401.24 399.15 391.51 399.82 376.46 399.82C374.96 399.82 367.45 399.82 353.95 399.82C348.27 397.1 345.12 395.59 344.49 395.29C331.57 389.16 321.57 381.44 302.66 363.32C287.74 348.93 282.41 345.34 282.41 349.6C282.41 352 285.47 356.13 297.2 369.98C312.12 387.43 323.57 397.55 333.96 402.75C341.82 406.61 344.49 407.15 355.01 407.55C365.93 407.95 386.18 406.48 398.04 404.35C398.34 404.29 399.85 403.98 402.57 403.42C402.17 408.93 401.95 412 401.9 412.61C401.64 417.67 400.3 428.86 398.97 437.65C394.71 464.56 398.84 483.21 416.55 518.25C421.88 528.77 426.15 537.56 426.01 537.69C425.75 537.83 409.89 538.36 390.71 538.89C388.38 538.96 376.7 539.27 355.68 539.83C355.68 535.99 355.68 533.86 355.68 533.43C355.68 529.97 354.48 524.37 353.01 521.18C350.35 515.58 346.35 496.13 346.35 489.6C346.35 485.87 342.22 483.08 339.96 485.34C339.03 486.27 338.76 492.14 339.29 502.93C340.09 519.98 337.96 534.9 333.43 544.75C331.97 547.69 331.7 549.55 332.63 550.48C333.56 551.42 344.75 551.15 366.73 549.82C409.63 547.02 445.06 547.02 462.78 549.82C470.37 551.02 477.17 552.35 477.83 552.88C479.7 554.08 500.35 589.91 504.87 600.04C507.01 604.83 510.87 615.89 513.27 624.68C518.06 641.47 517.93 644.53 512.87 648.93C511.4 650.26 510.2 651.86 510.2 652.79C510.2 653.59 509.67 654.25 509.14 654.25C508.47 654.25 507.01 650.79 505.81 646.53C502.61 634.94 495.95 620.95 493.68 620.95C489.82 620.95 490.09 623.88 495.02 636C500.21 648.79 501.81 657.59 500.35 665.44C499.55 669.31 498.61 670.37 493.82 672.24C490.35 673.57 485.29 674.24 480.9 673.97C480.41 673.94 477.97 673.81 473.57 673.57C472.61 665.18 472.08 660.52 471.97 659.58C469.71 639.6 466.11 628.94 461.45 628.94C458.25 628.94 457.98 631.74 460.78 638.14C463.71 645.06 467.31 669.57 465.71 671.31C464.25 672.64 418.55 673.3 412.29 671.97C411.94 671.89 410.16 671.49 406.96 670.77L406.56 659.18L406.16 647.59C414.08 647.59 418.47 647.59 419.35 647.59C429.48 647.59 432.94 647.06 434.27 645.6C435.6 644 435.47 640 433.87 625.61C431.74 606.83 429.88 601.77 417.75 582.59C413.09 575.13 409.49 575.26 410.03 582.99C410.29 585.78 411.36 589.38 412.43 590.85C415.62 595.38 414.82 598.04 410.03 598.97C377.26 604.43 366.07 604.7 327.04 601.64C313.05 600.44 292.8 599.11 281.88 598.57C280.57 598.51 274.04 598.2 262.3 597.64C257.1 584.45 254.21 577.13 253.64 575.66C234.85 527.7 232.19 515.45 230.86 471.35C229.92 439.38 229.39 436.85 224.06 441.51C222.86 442.58 219.4 444.71 216.34 446.18C207.15 450.84 207.15 450.84 210.48 470.69C216.87 509.45 221.53 530.5 226.86 544.35C229.26 550.48 249.51 590.31 253.5 596.57C255.5 599.77 257.1 602.84 257.1 603.5C257.1 606.83 289.6 609.1 342.36 609.36C380.59 609.63 389.11 609.23 402.03 607.1C410.29 605.77 417.22 604.83 417.35 605.1C419.49 608.16 426.28 625.48 426.95 629.61C427.48 632.54 428.14 636 428.54 637.2C429.08 639.34 427.88 639.6 415.89 639.6C415 639.6 410.56 639.6 402.57 639.6C402.09 643.84 401.82 646.19 401.77 646.66C399.24 669.57 399.24 672.11 402.03 675.57C402.21 675.79 403.1 676.9 404.7 678.9C423.96 678.98 434.66 679.02 436.8 679.03C454.39 679.03 469.31 679.57 469.84 679.96C471.97 682.23 489.82 680.76 497.55 677.83C498.08 677.63 500.75 676.61 505.54 674.77C506.18 670.37 506.54 667.93 506.61 667.44C507.67 660.78 508.34 659.72 512.87 656.92C515.93 655.05 519.53 650.92 522.06 646.53C522.34 646.03 523.76 643.54 526.32 639.07C525.44 631.88 524.95 627.88 524.86 627.08C522.33 604.97 518.06 594.71 500.08 565.94C487.82 546.49 486.89 545.42 480.63 542.22C475.7 539.69 455.85 537.16 444.4 537.56C444.06 537.57 442.37 537.61 439.33 537.69C435.42 527.7 433.24 522.15 432.81 521.04C421.35 492.14 414.42 470.29 412.96 458.43C410.56 438.85 409.63 416.74 410.83 410.61C410.91 410.22 411.31 408.27 412.03 404.75C427.29 405.31 435.77 405.62 437.47 405.68C465.71 406.75 473.57 405.81 496.88 398.49C530.45 388.1 543.24 370.51 551.37 323.22C555.36 300.44 565.89 207.33 564.69 206C564.42 205.73 551.23 198 535.51 188.68C458.65 143.12 424.68 125.4 400.57 118.21C374.59 110.35 358.87 106.75 350.61 106.75C338.09 106.75 338.36 107.15 338.36 91.83C338.36 84.51 339.29 72.25 340.36 64.66C342.49 50.8 342.22 48.14 339.29 48.14C338.36 48.14 329.03 53.07 318.38 59.2C295.73 71.98 289.2 77.98 281.61 92.76ZM333.56 70.92C332.1 77.85 331.7 84.24 332.23 92.63C333.03 104.35 333.03 104.35 329.97 103.56C328.37 103.16 320.11 102.76 311.58 102.76C296.13 102.76 296 102.76 295.46 99.43C295.07 97.56 295.33 93.03 296.13 89.17C298 80.11 303.72 74.38 319.98 65.59C333.16 58.4 333.83 58.13 334.9 59.99C335.3 60.53 334.63 65.59 333.56 70.92ZM341.16 158.04C343.02 162.3 343.69 168.83 344.49 189.61C344.55 191.37 344.86 200.16 345.42 215.99C342.46 215.99 340.82 215.99 340.49 215.99C337.83 215.99 333.43 215.05 330.77 213.99C328.24 212.92 324.9 211.99 323.57 211.99C321.17 211.99 321.04 210.66 321.04 188.94C321.04 187.41 321.04 179.73 321.04 165.9C317.84 166.22 316.07 166.4 315.71 166.43C311.32 166.83 309.85 166.3 306.39 162.97C301.73 158.17 301.33 153.78 305.19 148.85C305.37 148.62 306.26 147.46 307.85 145.38C303.94 145.38 301.76 145.38 301.33 145.38C295.46 145.38 294.67 145.12 295.33 142.99C296.53 138.06 309.72 135.93 320.24 138.86C326.77 140.59 337.96 150.98 341.16 158.04ZM306.39 176.02C306.39 181.35 300.13 188.01 295.07 188.01C290 188.01 283.74 181.35 283.74 176.02C283.74 170.69 290 164.03 295.07 164.03C297.2 164.03 300.13 165.63 302.53 167.9C305.19 170.56 306.39 173.09 306.39 176.02ZM519.26 377.84C512.07 383.97 497.55 389.96 476.37 395.69C459.18 400.49 454.65 401.15 442.66 401.15C431.61 401.15 428.94 400.75 428.94 399.29C428.94 396.22 430.68 395.69 446.93 394.49C447.95 394.41 453.06 394.01 462.25 393.29C469.2 388.82 473.06 386.33 473.84 385.83C487.16 377.04 500.48 364.78 506.07 355.99C513.4 344.54 515.93 334.41 516.2 315.5C516.33 306.17 516.86 298.05 517.4 297.65C517.8 297.25 518.2 295.11 518.2 293.12C518.2 289.39 523.39 284.19 533.38 277.8C536.31 275.93 547.9 273.13 549.77 273.93C549.9 273.93 548.57 284.46 546.7 297.25C539.64 347.07 533.12 366.25 519.26 377.84Z" id="a3Yy31VPSo" fill="white" fill-opacity="1" filter="url(#shadow9667129)"></path></g><use xlink:href="#g36wi070s" opacity="1" fill="#1e481b" fill-opacity="1"></use><g mask="url(#maskd12jkdxcC7)"><use xlink:href="#g36wi070s" opacity="1" fill-opacity="0" stroke="#000000" stroke-width="32" stroke-opacity="0"></use></g></g><g><use xlink:href="#a2tm6muLx" opacity="1" fill="url(#gradientb5MeL18g3)"></use><g><use xlink:href="#a2tm6muLx" opacity="1" fill-opacity="0" stroke="#000000" stroke-width="1" stroke-opacity="0"></use></g></g><g><use xlink:href="#c61oVsOrXa" opacity="1" fill="url(#gradientc5aEfqZaz)"></use><g><use xlink:href="#c61oVsOrXa" opacity="1" fill-opacity="0" stroke="#000000" stroke-width="1" stroke-opacity="0"></use></g></g><g><use xlink:href="#b15QOKmiOS" opacity="1" fill="url(#gradientc1kdfYVSZC)"></use><g><use xlink:href="#b15QOKmiOS" opacity="1" fill-opacity="0" stroke="#000000" stroke-width="1" stroke-opacity="0"></use></g></g><g><use xlink:href="#bKLoDznAQ" opacity="1" fill="#000000" fill-opacity="1"></use><g><use xlink:href="#bKLoDznAQ" opacity="1" fill-opacity="0" stroke="#000000" stroke-width="1" stroke-opacity="0"></use></g></g><g><use xlink:href="#h2554YnbEE" opacity="1" fill="url(#gradientefKjmZGym)"></use><g><use xlink:href="#h2554YnbEE" opacity="1" fill-opacity="0" stroke="#000000" stroke-width="1" stroke-opacity="0"></use></g></g><g><use xlink:href="#a1ShR9tTV" opacity="1" fill="#fffbfb" fill-opacity="1"></use><g><use xlink:href="#a1ShR9tTV" opacity="1" fill-opacity="0" stroke="#000000" stroke-width="1" stroke-opacity="0"></use></g></g><g><use xlink:href="#bFAtOFEn2" opacity="1" fill="#fffbfb" fill-opacity="1"></use><g><use xlink:href="#bFAtOFEn2" opacity="1" fill-opacity="0" stroke="#000000" stroke-width="1" stroke-opacity="0"></use></g></g><g><use xlink:href="#b2uvroQz5x" opacity="1" fill="#ffffff" fill-opacity="1"></use><g><use xlink:href="#b2uvroQz5x" opacity="1" fill-opacity="0" stroke="#000000" stroke-width="1" stroke-opacity="0"></use></g></g><g><use xlink:href="#gUHb1MhkQ" opacity="1" fill="#ffffff" fill-opacity="1"></use><g><use xlink:href="#gUHb1MhkQ" opacity="1" fill-opacity="0" stroke="#000000" stroke-width="1" stroke-opacity="0"></use></g></g><g><use xlink:href="#e1KDsvoB04" opacity="1" fill="#ffffff" fill-opacity="1"></use><g><use xlink:href="#e1KDsvoB04" opacity="1" fill-opacity="0" stroke="#000000" stroke-width="1" stroke-opacity="0"></use></g></g></g></g></svg>